<?xml version="1.0" encoding="UTF-8" standalone="no"?>
<!DOCTYPE svg PUBLIC "-//W3C//DTD SVG 1.1//EN"
 "http://www.w3.org/Graphics/SVG/1.1/DTD/svg11.dtd">
<!-- Generated by graphviz version 2.30.1 (20150306.0020)
 -->
<!-- Title: Network Pages: 1 -->
<svg width="216pt" height="808pt"
 viewBox="0.00 0.00 216.00 808.00" xmlns="http://www.w3.org/2000/svg" xmlns:xlink="http://www.w3.org/1999/xlink">
<g id="graph0" class="graph" transform="scale(1 1) rotate(0) translate(4 804)">
<title>Network</title>
<polygon fill="white" stroke="white" points="-4,5 -4,-804 213,-804 213,5 -4,5"/>
<!-- lasagne.layers.conv.Conv2DLayer object at 0xe87d0d0 -->
<g id="node1" class="node"><title>lasagne.layers.conv.Conv2DLayer object at 0xe87d0d0</title>
<polygon fill="#3173a2" stroke="black" points="12,-1 12,-39 196,-39 196,-1 12,-1"/>
<text text-anchor="middle" x="104" y="-23.8" font-family="Times,serif" font-size="14.00">classifier_0 Conv2DLayer</text>
<text text-anchor="middle" x="104" y="-8.8" font-family="Times,serif" font-size="14.00">Output shape: (None, 10, 8, 8)</text>
</g>
<!-- lasagne.layers.special.NonlinearityLayer object at 0xefa0f50 -->
<g id="node2" class="node"><title>lasagne.layers.special.NonlinearityLayer object at 0xefa0f50</title>
<polygon fill="#75df54" stroke="black" points="0,-153 0,-191 208,-191 208,-153 0,-153"/>
<text text-anchor="middle" x="104" y="-175.8" font-family="Times,serif" font-size="14.00">c0_1_bn_nonlin NonlinearityLayer</text>
<text text-anchor="middle" x="104" y="-160.8" font-family="Times,serif" font-size="14.00">Output shape: (None, 32, 16, 16)</text>
</g>
<!-- lasagne.layers.pool.MaxPool2DLayer object at 0xefa0050 -->
<g id="node11" class="node"><title>lasagne.layers.pool.MaxPool2DLayer object at 0xefa0050</title>
<polygon fill="#fcac41" stroke="black" points="12,-77 12,-115 196,-115 196,-77 12,-77"/>
<text text-anchor="middle" x="104" y="-99.8" font-family="Times,serif" font-size="14.00">mp0_1 MaxPool2DLayer</text>
<text text-anchor="middle" x="104" y="-84.8" font-family="Times,serif" font-size="14.00">Output shape: (None, 32, 8, 8)</text>
</g>
<!-- lasagne.layers.special.NonlinearityLayer object at 0xefa0f50&#45;&gt;lasagne.layers.pool.MaxPool2DLayer object at 0xefa0050 -->
<g id="edge9" class="edge"><title>lasagne.layers.special.NonlinearityLayer object at 0xefa0f50&#45;&gt;lasagne.layers.pool.MaxPool2DLayer object at 0xefa0050</title>
<path fill="none" stroke="black" d="M104,-152.708C104,-144.464 104,-134.538 104,-125.362"/>
<polygon fill="black" stroke="black" points="107.5,-125.082 104,-115.082 100.5,-125.082 107.5,-125.082"/>
</g>
<!-- lasagne.layers.normalization.BatchNormLayer object at 0xea785d0 -->
<g id="node3" class="node"><title>lasagne.layers.normalization.BatchNormLayer object at 0xea785d0</title>
<polygon fill="#3fcd12" stroke="black" points="5.5,-533 5.5,-571 202.5,-571 202.5,-533 5.5,-533"/>
<text text-anchor="middle" x="104" y="-555.8" font-family="Times,serif" font-size="14.00">c0_0_bn BatchNormLayer</text>
<text text-anchor="middle" x="104" y="-540.8" font-family="Times,serif" font-size="14.00">Output shape: (None, 16, 32, 32)</text>
</g>
<!-- lasagne.layers.special.NonlinearityLayer object at 0xeadc810 -->
<g id="node7" class="node"><title>lasagne.layers.special.NonlinearityLayer object at 0xeadc810</title>
<polygon fill="#75df54" stroke="black" points="0,-457 0,-495 208,-495 208,-457 0,-457"/>
<text text-anchor="middle" x="104" y="-479.8" font-family="Times,serif" font-size="14.00">c0_0_bn_nonlin NonlinearityLayer</text>
<text text-anchor="middle" x="104" y="-464.8" font-family="Times,serif" font-size="14.00">Output shape: (None, 16, 32, 32)</text>
</g>
<!-- lasagne.layers.normalization.BatchNormLayer object at 0xea785d0&#45;&gt;lasagne.layers.special.NonlinearityLayer object at 0xeadc810 -->
<g id="edge4" class="edge"><title>lasagne.layers.normalization.BatchNormLayer object at 0xea785d0&#45;&gt;lasagne.layers.special.NonlinearityLayer object at 0xeadc810</title>
<path fill="none" stroke="black" d="M104,-532.708C104,-524.464 104,-514.538 104,-505.362"/>
<polygon fill="black" stroke="black" points="107.5,-505.082 104,-495.082 100.5,-505.082 107.5,-505.082"/>
</g>
<!-- lasagne.layers.pool.MaxPool2DLayer object at 0xeadce90 -->
<g id="node4" class="node"><title>lasagne.layers.pool.MaxPool2DLayer object at 0xeadce90</title>
<polygon fill="#fcac41" stroke="black" points="5.5,-381 5.5,-419 202.5,-419 202.5,-381 5.5,-381"/>
<text text-anchor="middle" x="104" y="-403.8" font-family="Times,serif" font-size="14.00">mp0_0 MaxPool2DLayer</text>
<text text-anchor="middle" x="104" y="-388.8" font-family="Times,serif" font-size="14.00">Output shape: (None, 16, 16, 16)</text>
</g>
<!-- lasagne.layers.conv.Conv2DLayer object at 0xeadce10 -->
<g id="node9" class="node"><title>lasagne.layers.conv.Conv2DLayer object at 0xeadce10</title>
<polygon fill="#3173a2" stroke="black" points="5.5,-305 5.5,-343 202.5,-343 202.5,-305 5.5,-305"/>
<text text-anchor="middle" x="104" y="-327.8" font-family="Times,serif" font-size="14.00">c0_1 Conv2DLayer</text>
<text text-anchor="middle" x="104" y="-312.8" font-family="Times,serif" font-size="14.00">Output shape: (None, 32, 16, 16)</text>
</g>
<!-- lasagne.layers.pool.MaxPool2DLayer object at 0xeadce90&#45;&gt;lasagne.layers.conv.Conv2DLayer object at 0xeadce10 -->
<g id="edge6" class="edge"><title>lasagne.layers.pool.MaxPool2DLayer object at 0xeadce90&#45;&gt;lasagne.layers.conv.Conv2DLayer object at 0xeadce10</title>
<path fill="none" stroke="black" d="M104,-380.708C104,-372.464 104,-362.538 104,-353.362"/>
<polygon fill="black" stroke="black" points="107.5,-353.082 104,-343.082 100.5,-353.082 107.5,-353.082"/>
</g>
<!-- lasagne.layers.pool.Pool2DLayer object at 0xfbb7c10 -->
<g id="node5" class="node"><title>lasagne.layers.pool.Pool2DLayer object at 0xfbb7c10</title>
<polygon fill="#ffdaa9" stroke="black" points="8.5,-685 8.5,-723 199.5,-723 199.5,-685 8.5,-685"/>
<text text-anchor="middle" x="104" y="-707.8" font-family="Times,serif" font-size="14.00">pool_2 Pool2DLayer</text>
<text text-anchor="middle" x="104" y="-692.8" font-family="Times,serif" font-size="14.00">Output shape: (None, 1, 32, 32)</text>
</g>
<!-- lasagne.layers.conv.Conv2DLayer object at 0xfbb7850 -->
<g id="node6" class="node"><title>lasagne.layers.conv.Conv2DLayer object at 0xfbb7850</title>
<polygon fill="#3173a2" stroke="black" points="5.5,-609 5.5,-647 202.5,-647 202.5,-609 5.5,-609"/>
<text text-anchor="middle" x="104" y="-631.8" font-family="Times,serif" font-size="14.00">c0_0 Conv2DLayer</text>
<text text-anchor="middle" x="104" y="-616.8" font-family="Times,serif" font-size="14.00">Output shape: (None, 16, 32, 32)</text>
</g>
<!-- lasagne.layers.pool.Pool2DLayer object at 0xfbb7c10&#45;&gt;lasagne.layers.conv.Conv2DLayer object at 0xfbb7850 -->
<g id="edge2" class="edge"><title>lasagne.layers.pool.Pool2DLayer object at 0xfbb7c10&#45;&gt;lasagne.layers.conv.Conv2DLayer object at 0xfbb7850</title>
<path fill="none" stroke="black" d="M104,-684.708C104,-676.464 104,-666.538 104,-657.362"/>
<polygon fill="black" stroke="black" points="107.5,-657.082 104,-647.082 100.5,-657.082 107.5,-657.082"/>
</g>
<!-- lasagne.layers.conv.Conv2DLayer object at 0xfbb7850&#45;&gt;lasagne.layers.normalization.BatchNormLayer object at 0xea785d0 -->
<g id="edge3" class="edge"><title>lasagne.layers.conv.Conv2DLayer object at 0xfbb7850&#45;&gt;lasagne.layers.normalization.BatchNormLayer object at 0xea785d0</title>
<path fill="none" stroke="black" d="M104,-608.708C104,-600.464 104,-590.538 104,-581.362"/>
<polygon fill="black" stroke="black" points="107.5,-581.082 104,-571.082 100.5,-581.082 107.5,-581.082"/>
</g>
<!-- lasagne.layers.special.NonlinearityLayer object at 0xeadc810&#45;&gt;lasagne.layers.pool.MaxPool2DLayer object at 0xeadce90 -->
<g id="edge5" class="edge"><title>lasagne.layers.special.NonlinearityLayer object at 0xeadc810&#45;&gt;lasagne.layers.pool.MaxPool2DLayer object at 0xeadce90</title>
<path fill="none" stroke="black" d="M104,-456.708C104,-448.464 104,-438.538 104,-429.362"/>
<polygon fill="black" stroke="black" points="107.5,-429.082 104,-419.082 100.5,-429.082 107.5,-429.082"/>
</g>
<!-- lasagne.layers.normalization.BatchNormLayer object at 0xefa0b10 -->
<g id="node8" class="node"><title>lasagne.layers.normalization.BatchNormLayer object at 0xefa0b10</title>
<polygon fill="#3fcd12" stroke="black" points="5.5,-229 5.5,-267 202.5,-267 202.5,-229 5.5,-229"/>
<text text-anchor="middle" x="104" y="-251.8" font-family="Times,serif" font-size="14.00">c0_1_bn BatchNormLayer</text>
<text text-anchor="middle" x="104" y="-236.8" font-family="Times,serif" font-size="14.00">Output shape: (None, 32, 16, 16)</text>
</g>
<!-- lasagne.layers.normalization.BatchNormLayer object at 0xefa0b10&#45;&gt;lasagne.layers.special.NonlinearityLayer object at 0xefa0f50 -->
<g id="edge8" class="edge"><title>lasagne.layers.normalization.BatchNormLayer object at 0xefa0b10&#45;&gt;lasagne.layers.special.NonlinearityLayer object at 0xefa0f50</title>
<path fill="none" stroke="black" d="M104,-228.708C104,-220.464 104,-210.538 104,-201.362"/>
<polygon fill="black" stroke="black" points="107.5,-201.082 104,-191.082 100.5,-201.082 107.5,-201.082"/>
</g>
<!-- lasagne.layers.conv.Conv2DLayer object at 0xeadce10&#45;&gt;lasagne.layers.normalization.BatchNormLayer object at 0xefa0b10 -->
<g id="edge7" class="edge"><title>lasagne.layers.conv.Conv2DLayer object at 0xeadce10&#45;&gt;lasagne.layers.normalization.BatchNormLayer object at 0xefa0b10</title>
<path fill="none" stroke="black" d="M104,-304.708C104,-296.464 104,-286.538 104,-277.362"/>
<polygon fill="black" stroke="black" points="107.5,-277.082 104,-267.082 100.5,-277.082 107.5,-277.082"/>
</g>
<!-- lasagne.layers.input.InputLayer object at 0xfbae950 -->
<g id="node10" class="node"><title>lasagne.layers.input.InputLayer object at 0xfbae950</title>
<polygon fill="#b3f1a0" stroke="black" points="2,-761 2,-799 206,-799 206,-761 2,-761"/>
<text text-anchor="middle" x="104" y="-783.8" font-family="Times,serif" font-size="14.00">InputLayer</text>
<text text-anchor="middle" x="104" y="-768.8" font-family="Times,serif" font-size="14.00">Output shape: (None, 1, 128, 128)</text>
</g>
<!-- lasagne.layers.input.InputLayer object at 0xfbae950&#45;&gt;lasagne.layers.pool.Pool2DLayer object at 0xfbb7c10 -->
<g id="edge1" class="edge"><title>lasagne.layers.input.InputLayer object at 0xfbae950&#45;&gt;lasagne.layers.pool.Pool2DLayer object at 0xfbb7c10</title>
<path fill="none" stroke="black" d="M104,-760.708C104,-752.464 104,-742.538 104,-733.362"/>
<polygon fill="black" stroke="black" points="107.5,-733.082 104,-723.082 100.5,-733.082 107.5,-733.082"/>
</g>
<!-- lasagne.layers.pool.MaxPool2DLayer object at 0xefa0050&#45;&gt;lasagne.layers.conv.Conv2DLayer object at 0xe87d0d0 -->
<g id="edge10" class="edge"><title>lasagne.layers.pool.MaxPool2DLayer object at 0xefa0050&#45;&gt;lasagne.layers.conv.Conv2DLayer object at 0xe87d0d0</title>
<path fill="none" stroke="black" d="M104,-76.7079C104,-68.4635 104,-58.5376 104,-49.3622"/>
<polygon fill="black" stroke="black" points="107.5,-49.0817 104,-39.0817 100.5,-49.0818 107.5,-49.0817"/>
</g>
</g>
</svg>
